<svg width="127" height="132" viewBox="0 0 127 132" fill="none" xmlns="http://www.w3.org/2000/svg">
<circle cx="63.1479" cy="44.7456" r="20.3817" stroke="white" stroke-width="3"/>
<path d="M62.8211 2L26 23.7459M62.8211 2L100.296 23.6366M62.8211 2V22.8717M26 23.7459V66.582M26 23.7459C26 23.7459 48.4416 36.6664 62.8211 44.9454M26 66.582L62.8211 87.8116M26 66.582L45.0642 55.5451M100.296 66.4727L63.1479 88L62.8211 87.8116M100.296 66.4727V23.6366M100.296 66.4727L81.6674 55.5451M100.296 23.6366C100.296 23.6366 77.4559 36.6238 62.8211 44.9454M62.8211 44.9454C62.8211 61.6857 62.8211 87.8116 62.8211 87.8116" stroke="white" stroke-width="3"/>
<path d="M20.125 123H17.1094V112.484H5.64062V123H2.64062V100.25H5.64062V110.031H17.1094V100.25H20.125V123ZM35.4375 121.328C34.3125 122.651 32.6615 123.312 30.4844 123.312C28.6823 123.312 27.3073 122.792 26.3594 121.75C25.4219 120.698 24.9479 119.146 24.9375 117.094V106.094H27.8281V117.016C27.8281 119.578 28.8698 120.859 30.9531 120.859C33.1615 120.859 34.6302 120.036 35.3594 118.391V106.094H38.25V123H35.5L35.4375 121.328ZM56.9688 114.734C56.9688 117.318 56.375 119.396 55.1875 120.969C54 122.531 52.4062 123.312 50.4062 123.312C48.2708 123.312 46.6198 122.557 45.4531 121.047L45.3125 123H42.6562V99H45.5469V107.953C46.7135 106.505 48.3229 105.781 50.375 105.781C52.4271 105.781 54.0365 106.557 55.2031 108.109C56.3802 109.661 56.9688 111.786 56.9688 114.484V114.734ZM54.0781 114.406C54.0781 112.438 53.6979 110.917 52.9375 109.844C52.1771 108.771 51.0833 108.234 49.6562 108.234C47.75 108.234 46.3802 109.12 45.5469 110.891V118.203C46.4323 119.974 47.8125 120.859 49.6875 120.859C51.0729 120.859 52.151 120.323 52.9219 119.25C53.6927 118.177 54.0781 116.562 54.0781 114.406ZM76.7969 102.719H69.4844V123H66.5V102.719H59.2031V100.25H76.7969V102.719ZM88.375 123C88.2083 122.667 88.0729 122.073 87.9688 121.219C86.625 122.615 85.0208 123.312 83.1562 123.312C81.4896 123.312 80.1198 122.844 79.0469 121.906C77.9844 120.958 77.4531 119.76 77.4531 118.312C77.4531 116.552 78.1198 115.188 79.4531 114.219C80.7969 113.24 82.6823 112.75 85.1094 112.75H87.9219V111.422C87.9219 110.411 87.6198 109.609 87.0156 109.016C86.4115 108.411 85.5208 108.109 84.3438 108.109C83.3125 108.109 82.4479 108.37 81.75 108.891C81.0521 109.411 80.7031 110.042 80.7031 110.781H77.7969C77.7969 109.938 78.0938 109.125 78.6875 108.344C79.2917 107.552 80.1042 106.927 81.125 106.469C82.1562 106.01 83.2865 105.781 84.5156 105.781C86.4635 105.781 87.9896 106.271 89.0938 107.25C90.1979 108.219 90.7708 109.557 90.8125 111.266V119.047C90.8125 120.599 91.0104 121.833 91.4062 122.75V123H88.375ZM83.5781 120.797C84.4844 120.797 85.3438 120.562 86.1562 120.094C86.9688 119.625 87.5573 119.016 87.9219 118.266V114.797H85.6562C82.1146 114.797 80.3438 115.833 80.3438 117.906C80.3438 118.812 80.6458 119.521 81.25 120.031C81.8542 120.542 82.6302 120.797 83.5781 120.797ZM105.188 118.516C105.188 117.734 104.891 117.13 104.297 116.703C103.714 116.266 102.688 115.891 101.219 115.578C99.7604 115.266 98.599 114.891 97.7344 114.453C96.8802 114.016 96.2448 113.495 95.8281 112.891C95.4219 112.286 95.2188 111.568 95.2188 110.734C95.2188 109.349 95.8021 108.177 96.9688 107.219C98.1458 106.26 99.6458 105.781 101.469 105.781C103.385 105.781 104.938 106.276 106.125 107.266C107.323 108.255 107.922 109.521 107.922 111.062H105.016C105.016 110.271 104.677 109.589 104 109.016C103.333 108.443 102.49 108.156 101.469 108.156C100.417 108.156 99.5938 108.385 99 108.844C98.4062 109.302 98.1094 109.901 98.1094 110.641C98.1094 111.339 98.3854 111.865 98.9375 112.219C99.4896 112.573 100.484 112.911 101.922 113.234C103.37 113.557 104.542 113.943 105.438 114.391C106.333 114.839 106.995 115.38 107.422 116.016C107.859 116.641 108.078 117.406 108.078 118.312C108.078 119.823 107.474 121.036 106.266 121.953C105.057 122.859 103.49 123.312 101.562 123.312C100.208 123.312 99.0104 123.073 97.9688 122.594C96.9271 122.115 96.1094 121.448 95.5156 120.594C94.9323 119.729 94.6406 118.797 94.6406 117.797H97.5312C97.5833 118.766 97.9688 119.536 98.6875 120.109C99.4167 120.672 100.375 120.953 101.562 120.953C102.656 120.953 103.531 120.734 104.188 120.297C104.854 119.849 105.188 119.255 105.188 118.516ZM116.562 115.172L114.75 117.062V123H111.859V99H114.75V113.516L116.297 111.656L121.562 106.094H125.078L118.5 113.156L125.844 123H122.453L116.562 115.172Z" fill="white"/>
</svg>
